<svg width="790" height="702" viewBox="0 0 790 702" fill="none" xmlns="http://www.w3.org/2000/svg">
<path d="M111.077 580.033C124.406 619.075 141.549 658.032 163.51 695.112C163.997 695.947 164.49 696.765 164.987 697.597L219.356 680.397C219.043 679.61 218.7 678.729 218.332 677.768C196.403 621.057 64.0999 275.531 70.0385 207.406C69.3992 212.982 48.7019 397.526 111.077 580.033Z" fill="#B2AFA1"/>
<path d="M153.021 698.43C153.76 699.185 154.518 699.935 155.281 700.668L196.067 687.765C195.516 687.097 194.874 686.311 194.135 685.423C182.056 670.671 146.144 626.504 111.077 580.033C73.3913 530.093 36.6744 477.5 31.5286 455.889C32.5621 460.803 64.7447 610.4 153.021 698.43Z" fill="#B2AFA1"/>
<path d="M132.633 123.114C132.649 123.114 132.663 123.119 132.678 123.119V35.6899C132.678 26.2244 136.438 17.1465 143.132 10.4533C149.825 3.76018 158.903 0 168.368 0H442.088C451.554 0 460.632 3.76018 467.325 10.4533C474.018 17.1465 477.778 26.2244 477.778 35.6899V80.5107C478.534 80.5269 479.253 80.8382 479.782 81.3781C480.311 81.918 480.608 82.6436 480.608 83.3994V105.6C480.608 106.355 480.311 107.081 479.782 107.621C479.253 108.161 478.534 108.472 477.778 108.488V131.745H477.923C478.304 131.745 478.68 131.819 479.031 131.965C479.382 132.11 479.702 132.324 479.971 132.593C480.239 132.861 480.453 133.18 480.598 133.532C480.744 133.883 480.818 134.259 480.818 134.64V177.569C480.818 177.95 480.744 178.326 480.598 178.677C480.453 179.028 480.239 179.348 479.971 179.616C479.702 179.885 479.382 180.099 479.031 180.244C478.68 180.389 478.304 180.464 477.923 180.464H477.778V197.515H477.823C478.204 197.515 478.58 197.589 478.931 197.735C479.283 197.88 479.602 198.094 479.87 198.363C480.139 198.631 480.353 198.95 480.498 199.302C480.644 199.653 480.718 200.029 480.718 200.41V243.759C480.718 244.139 480.644 244.516 480.498 244.867C480.353 245.218 480.139 245.538 479.87 245.806C479.602 246.075 479.283 246.288 478.931 246.434C478.58 246.579 478.204 246.654 477.823 246.654H477.778V665.68C477.778 675.146 474.018 684.224 467.325 690.917C460.632 697.61 451.554 701.37 442.088 701.37H168.368C158.903 701.37 149.825 697.61 143.132 690.917C136.438 684.224 132.678 675.146 132.678 665.68V208.13C132.663 208.13 132.649 208.134 132.633 208.134C131.956 208.134 131.286 208.001 130.661 207.742C130.035 207.483 129.467 207.103 128.988 206.625C128.509 206.146 128.13 205.578 127.871 204.952C127.612 204.327 127.478 203.656 127.478 202.979V128.27C127.478 126.902 128.021 125.591 128.988 124.624C129.955 123.657 131.266 123.114 132.633 123.114Z" fill="#B2AFA1"/>
<path d="M153.988 45.68V655.68C153.991 662.948 156.88 669.917 162.02 675.055C167.16 680.194 174.13 683.08 181.398 683.08H429.058C436.326 683.08 443.296 680.194 448.437 675.055C453.577 669.917 456.466 662.948 456.468 655.68V45.68C456.468 38.4104 453.58 31.4386 448.44 26.2982C443.3 21.1578 436.328 18.27 429.058 18.27H391.998V23.08C391.996 29.0651 389.617 34.8044 385.385 39.0365C381.153 43.2686 375.413 45.6474 369.428 45.65H243.428C237.451 45.6368 231.723 43.253 227.501 39.0218C223.279 34.7905 220.908 29.0573 220.908 23.08V18.32H181.398C174.137 18.32 167.173 21.201 162.034 26.3305C156.895 31.4601 154.002 38.4191 153.988 45.68Z" fill="white"/>
<path d="M555.589 342.282C557.054 341.715 558.625 341.476 560.192 341.581C561.759 341.687 563.283 342.135 564.658 342.894C566.033 343.653 567.225 344.704 568.15 345.973C569.075 347.242 569.711 348.699 570.012 350.24L658.266 398.228L642.749 415.692L560.789 363.093C558.166 363.427 555.511 362.788 553.329 361.296C551.146 359.803 549.586 357.562 548.945 354.997C548.304 352.432 548.626 349.72 549.851 347.377C551.076 345.033 553.117 343.22 555.589 342.282Z" fill="#FFB8B8"/>
<path d="M578.097 687.551L567.1 680.438L589.303 634.635L605.534 645.133L578.097 687.551Z" fill="#FFB8B8"/>
<path d="M539.286 676.931L573.849 699.287L582.486 685.933L560.778 671.892C557.369 669.687 553.223 668.926 549.253 669.778C545.283 670.629 541.814 673.023 539.609 676.432L539.286 676.931Z" fill="black"/>
<path d="M701.489 689.206H688.392L682.159 638.688H701.489V689.206Z" fill="#FFB8B8"/>
<path d="M663.133 701.367H704.295V685.463H678.442C676.431 685.463 674.441 685.859 672.583 686.629C670.726 687.398 669.038 688.526 667.617 689.947C666.195 691.369 665.067 693.057 664.298 694.914C663.529 696.771 663.133 698.762 663.133 700.773V701.367Z" fill="black"/>
<path d="M401 98.9922H428C428.663 98.9922 429.299 98.7288 429.768 98.2599C430.237 97.7911 430.5 97.1552 430.5 96.4922C430.5 95.8291 430.237 95.1933 429.768 94.7244C429.299 94.2556 428.663 93.9922 428 93.9922H401C400.337 93.9922 399.701 94.2556 399.232 94.7244C398.763 95.1933 398.5 95.8291 398.5 96.4922C398.5 97.1552 398.763 97.7911 399.232 98.2599C399.701 98.7288 400.337 98.9922 401 98.9922Z" fill="#B2AFA1"/>
<path d="M401 105.992H428C428.663 105.992 429.299 105.729 429.768 105.26C430.237 104.791 430.5 104.155 430.5 103.492C430.5 102.829 430.237 102.193 429.768 101.724C429.299 101.256 428.663 100.992 428 100.992H401C400.337 100.992 399.701 101.256 399.232 101.724C398.763 102.193 398.5 102.829 398.5 103.492C398.5 104.155 398.763 104.791 399.232 105.26C399.701 105.729 400.337 105.992 401 105.992Z" fill="#B2AFA1"/>
<path d="M401 112.992H428C428.663 112.992 429.299 112.729 429.768 112.26C430.237 111.791 430.5 111.155 430.5 110.492C430.5 109.829 430.237 109.193 429.768 108.724C429.299 108.256 428.663 107.992 428 107.992H401C400.337 107.992 399.701 108.256 399.232 108.724C398.763 109.193 398.5 109.829 398.5 110.492C398.5 111.155 398.763 111.791 399.232 112.26C399.701 112.729 400.337 112.992 401 112.992Z" fill="#B2AFA1"/>
<path d="M191.708 106.042H192.619L192.968 105.752C191.819 104.382 191.189 102.651 191.188 100.862C191.196 99.3908 191.64 97.9548 192.465 96.7357C193.289 95.5166 194.456 94.5693 195.818 94.0135C197.181 93.4577 198.677 93.3184 200.119 93.6133C201.561 93.9081 202.883 94.6238 203.917 95.6699C204.952 96.716 205.654 98.0454 205.933 99.4902C206.212 100.935 206.057 102.43 205.487 103.786C204.916 105.143 203.956 106.3 202.729 107.111C201.501 107.922 200.06 108.35 198.588 108.342C196.805 108.33 195.081 107.701 193.708 106.562L193.369 106.852V107.772L187.628 113.522L185.908 111.802L191.708 106.042ZM198.588 106.042C199.613 106.046 200.616 105.746 201.47 105.18C202.324 104.615 202.991 103.808 203.387 102.863C203.782 101.918 203.889 100.877 203.693 99.8714C203.497 98.8658 203.007 97.9409 202.285 97.2137C201.564 96.4865 200.643 95.9896 199.639 95.7858C198.635 95.5821 197.593 95.6806 196.645 96.069C195.697 96.4574 194.885 97.1182 194.313 97.9678C193.74 98.8175 193.433 99.8178 193.429 100.842L193.429 100.862C193.425 101.539 193.554 102.209 193.809 102.835C194.064 103.462 194.44 104.032 194.916 104.513C195.391 104.994 195.957 105.376 196.58 105.639C197.203 105.901 197.872 106.038 198.548 106.042C198.562 106.042 198.575 106.042 198.588 106.042Z" fill="#B2AFA1"/>
<path d="M345.995 190.992H394.5C397.417 190.992 400.215 189.833 402.278 187.77C404.341 185.707 405.5 182.91 405.5 179.992C405.5 177.075 404.341 174.277 402.278 172.214C400.215 170.151 397.417 168.992 394.5 168.992H345.995C343.077 168.992 340.279 170.151 338.216 172.214C336.154 174.277 334.995 177.075 334.995 179.992C334.995 182.91 336.154 185.707 338.216 187.77C340.279 189.833 343.077 190.992 345.995 190.992Z" fill="#8B80FF"/>
<path d="M197.5 214.992H399.5C401.091 214.992 402.617 214.36 403.743 213.235C404.868 212.11 405.5 210.583 405.5 208.992C405.5 207.401 404.868 205.875 403.743 204.75C402.617 203.624 401.091 202.992 399.5 202.992H197.5C195.909 202.992 194.383 203.624 193.257 204.75C192.132 205.875 191.5 207.401 191.5 208.992C191.5 210.583 192.132 212.11 193.257 213.235C194.383 214.36 195.909 214.992 197.5 214.992Z" fill="#B2AFA1"/>
<path d="M325.3 238.992H399.5C401.091 238.992 402.617 238.36 403.743 237.235C404.868 236.11 405.5 234.583 405.5 232.992C405.5 231.401 404.868 229.875 403.743 228.75C402.617 227.624 401.091 226.992 399.5 226.992H325.3C323.709 226.992 322.182 227.624 321.057 228.75C319.932 229.875 319.3 231.401 319.3 232.992C319.3 234.583 319.932 236.11 321.057 237.235C322.182 238.36 323.709 238.992 325.3 238.992Z" fill="#B2AFA1"/>
<path d="M345.995 456.992H394.5C397.417 456.992 400.215 455.833 402.278 453.77C404.341 451.707 405.5 448.91 405.5 445.992C405.5 443.075 404.341 440.277 402.278 438.214C400.215 436.151 397.417 434.992 394.5 434.992H345.995C343.077 434.992 340.279 436.151 338.216 438.214C336.154 440.277 334.995 443.075 334.995 445.992C334.995 448.91 336.154 451.707 338.216 453.77C340.279 455.833 343.077 456.992 345.995 456.992Z" fill="#8B80FF"/>
<path d="M197.5 480.992H399.5C401.091 480.992 402.617 480.36 403.743 479.235C404.868 478.11 405.5 476.583 405.5 474.992C405.5 473.401 404.868 471.875 403.743 470.75C402.617 469.624 401.091 468.992 399.5 468.992H197.5C195.909 468.992 194.383 469.624 193.257 470.75C192.132 471.875 191.5 473.401 191.5 474.992C191.5 476.583 192.132 478.11 193.257 479.235C194.383 480.36 195.909 480.992 197.5 480.992Z" fill="#B2AFA1"/>
<path d="M325.3 504.992H399.5C401.091 504.992 402.617 504.36 403.743 503.235C404.868 502.11 405.5 500.583 405.5 498.992C405.5 497.401 404.868 495.875 403.743 494.75C402.617 493.624 401.091 492.992 399.5 492.992H325.3C323.709 492.992 322.182 493.624 321.057 494.75C319.932 495.875 319.3 497.401 319.3 498.992C319.3 500.583 319.932 502.11 321.057 503.235C322.182 504.36 323.709 504.992 325.3 504.992Z" fill="#B2AFA1"/>
<path d="M345.995 579.992H394.5C397.417 579.992 400.215 578.833 402.278 576.77C404.341 574.707 405.5 571.91 405.5 568.992C405.5 566.075 404.341 563.277 402.278 561.214C400.215 559.151 397.417 557.992 394.5 557.992H345.995C343.077 557.992 340.279 559.151 338.216 561.214C336.154 563.277 334.995 566.075 334.995 568.992C334.995 571.91 336.154 574.707 338.216 576.77C340.279 578.833 343.077 579.992 345.995 579.992Z" fill="#8B80FF"/>
<path d="M197.5 603.992H399.5C401.091 603.992 402.617 603.36 403.743 602.235C404.868 601.11 405.5 599.583 405.5 597.992C405.5 596.401 404.868 594.875 403.743 593.75C402.617 592.624 401.091 591.992 399.5 591.992H197.5C195.909 591.992 194.383 592.624 193.257 593.75C192.132 594.875 191.5 596.401 191.5 597.992C191.5 599.583 192.132 601.11 193.257 602.235C194.383 603.36 195.909 603.992 197.5 603.992Z" fill="#B2AFA1"/>
<path d="M325.3 627.992H399.5C401.091 627.992 402.617 627.36 403.743 626.235C404.868 625.11 405.5 623.583 405.5 621.992C405.5 620.401 404.868 618.875 403.743 617.75C402.617 616.624 401.091 615.992 399.5 615.992H325.3C323.709 615.992 322.182 616.624 321.057 617.75C319.932 618.875 319.3 620.401 319.3 621.992C319.3 623.583 319.932 625.11 321.057 626.235C322.182 627.36 323.709 627.992 325.3 627.992Z" fill="#B2AFA1"/>
<path d="M169 394.492H555C557.254 394.49 559.414 393.593 561.008 392C562.601 390.406 563.497 388.246 563.5 385.992V280.992C563.497 278.739 562.601 276.578 561.008 274.985C559.414 273.391 557.254 272.495 555 272.492H169C166.746 272.495 164.586 273.391 162.992 274.985C161.399 276.578 160.503 278.739 160.5 280.992V385.992C160.503 388.246 161.399 390.406 162.993 392C164.586 393.593 166.746 394.49 169 394.492Z" fill="#8B80FF"/>
<path d="M693.768 519.412C690.078 545.302 709.618 660.002 707.448 659.992L679.388 659.842C678.388 657.922 665.508 596.032 661.468 586.102C655.828 572.322 650.138 558.372 647.918 543.652C645.828 529.832 646.858 515.752 648.218 501.842C648.155 501.428 648.191 501.005 648.324 500.608C648.456 500.211 648.681 499.851 648.98 499.558C649.279 499.265 649.643 499.048 650.043 498.923C650.442 498.799 650.866 498.771 651.278 498.842L688.928 496.902C696.688 496.502 698.528 494.802 697.348 502.422C696.528 508.112 694.588 513.652 693.768 519.412Z" fill="black"/>
<path d="M686.368 456.462C694.018 467.462 702.038 480.122 699.498 493.292C697.568 503.292 689.948 511.042 682.758 518.292C654.018 547.152 597.348 674.492 597.348 674.492C570 656.992 598 674.992 570.248 656.492C572.708 656.302 628.598 455.392 633.228 455.122C651.958 453.882 668.118 452.052 686.368 456.462Z" fill="black"/>
<path d="M656.11 351.763C659.996 348.298 687.302 337.611 687.302 337.611C687.804 337.545 688.314 337.56 688.811 337.657C690.365 338.049 691.074 339.98 690.742 341.542C690.41 343.103 693.133 368.766 693.835 380.436C695.064 400.803 683.07 446.939 683.176 448.35C683.587 453.381 685.79 458.097 689.384 461.642C688.45 462.801 629.119 465.127 625.083 466.5C624.269 465.466 629.677 392.287 629.926 388.153C630.341 381.877 650.98 356.515 656.11 351.763Z" fill="#B2AFA1"/>
<path d="M698.427 510.551C697.021 509.851 695.786 508.851 694.808 507.623C693.83 506.394 693.133 504.965 692.767 503.438C692.401 501.911 692.374 500.322 692.688 498.783C693.002 497.245 693.65 495.793 694.586 494.532L669.553 355.992L692.913 355.684L710.297 492.682C712.311 494.395 713.628 496.787 713.997 499.405C714.366 502.023 713.761 504.686 712.298 506.889C710.835 509.091 708.615 510.68 706.059 511.355C703.502 512.03 700.787 511.744 698.427 510.551Z" fill="#FFB8B8"/>
<path d="M698.628 366.272C699.602 366.343 700.573 366.09 701.388 365.552C702.778 364.362 691.438 346.152 689.198 345.882C681.908 345.042 674.408 344.762 667.338 346.732C660.268 348.702 653.618 353.182 650.458 359.812C649.138 362.572 658.708 376.462 663.058 374.422C668.268 371.982 691.768 366.442 698.628 366.272Z" fill="#B2AFA1"/>
<path d="M672.898 336.119C658.407 336.119 646.659 324.371 646.659 309.88C646.659 295.389 658.407 283.641 672.898 283.641C687.389 283.641 699.137 295.389 699.137 309.88C699.137 324.371 687.389 336.119 672.898 336.119Z" fill="#FFB8B8"/>
<path d="M698.67 353.264C695.024 353.645 691.34 353.106 687.956 351.696C684.572 350.286 681.595 348.05 679.299 345.192C677.002 342.335 675.459 338.947 674.81 335.339C674.161 331.73 674.427 328.017 675.584 324.538C676.629 321.399 678.374 318.521 679.33 315.354C680.286 312.187 680.312 308.442 678.192 305.903C674.042 300.935 666.044 304.06 659.646 303.072C652.83 302.02 647.6 295.48 647.055 288.604C646.509 281.728 650.093 274.924 655.428 270.552C660.763 266.181 667.644 264.028 674.508 263.353C683.324 262.487 692.214 263.905 700.322 267.471C708.431 271.037 715.485 276.63 720.805 283.713C726.125 290.795 729.532 299.128 730.698 307.909C731.865 316.69 730.75 325.623 727.463 333.849C724.595 341.024 719.91 347.707 713.257 351.637C706.603 355.567 697.816 356.322 691.184 352.355" fill="black"/>
<path d="M417.723 320.492H484.777C489.035 320.492 492.5 315.558 492.5 309.492C492.5 303.427 489.035 298.492 484.777 298.492H417.723C413.465 298.492 410 303.427 410 309.492C410 315.558 413.465 320.492 417.723 320.492Z" fill="white"/>
<path d="M237.5 344.492H486.5C488.091 344.492 489.617 343.86 490.743 342.735C491.868 341.61 492.5 340.083 492.5 338.492C492.5 336.901 491.868 335.375 490.743 334.25C489.617 333.124 488.091 332.492 486.5 332.492H237.5C235.909 332.492 234.383 333.124 233.257 334.25C232.132 335.375 231.5 336.901 231.5 338.492C231.5 340.083 232.132 341.61 233.257 342.735C234.383 343.86 235.909 344.492 237.5 344.492Z" fill="#B2AFA1"/>
<path d="M365.3 368.492H486.5C488.091 368.492 489.617 367.86 490.743 366.735C491.868 365.61 492.5 364.083 492.5 362.492C492.5 360.901 491.868 359.375 490.743 358.25C489.617 357.124 488.091 356.492 486.5 356.492H365.3C363.709 356.492 362.182 357.124 361.057 358.25C359.932 359.375 359.3 360.901 359.3 362.492C359.3 364.083 359.932 365.61 361.057 366.735C362.182 367.86 363.709 368.492 365.3 368.492Z" fill="#B2AFA1"/>
<path d="M0 699.992H790V701.992H0V699.992Z" fill="#B2AFA1"/>
</svg>
